<?xml version="1.0" standalone="no"?>
<!DOCTYPE svg PUBLIC "-//W3C//DTD SVG 20010904//EN"
 "http://www.w3.org/TR/2001/REC-SVG-20010904/DTD/svg10.dtd">
<svg version="1.0" xmlns="http://www.w3.org/2000/svg"
 width="1024.000000pt" height="1024.000000pt" viewBox="0 0 1024.000000 1024.000000"
 preserveAspectRatio="xMidYMid meet">

<g transform="translate(0.000000,1024.000000) scale(0.100000,-0.100000)"
fill="#000000" stroke="none">
<path d="M1320 9041 c0 -6 4 -11 8 -11 5 0 31 -21 58 -46 27 -26 99 -91 159
-144 134 -119 314 -297 426 -422 45 -51 87 -94 91 -96 4 -2 8 -8 8 -13 0 -5
21 -31 47 -56 27 -25 64 -67 83 -93 35 -48 110 -137 143 -172 9 -10 17 -22 17
-27 0 -5 6 -16 13 -23 31 -32 87 -106 87 -114 0 -5 8 -17 18 -26 36 -35 66
-76 78 -110 3 -10 10 -18 15 -18 8 0 27 -31 48 -77 6 -13 15 -23 20 -23 5 0
14 -12 20 -27 14 -37 33 -66 49 -76 6 -4 12 -17 12 -28 0 -11 7 -22 15 -25 8
-3 17 -16 21 -27 4 -12 19 -41 35 -65 16 -24 29 -50 29 -58 0 -8 7 -17 15 -20
8 -4 15 -16 15 -28 0 -12 9 -29 20 -39 11 -9 20 -25 20 -36 0 -10 7 -24 15
-31 8 -7 15 -20 15 -30 0 -10 7 -23 15 -30 8 -7 15 -20 15 -30 0 -10 7 -23 15
-30 8 -7 15 -22 15 -34 0 -12 9 -29 20 -39 11 -9 20 -26 20 -38 0 -11 7 -27
15 -35 8 -9 15 -26 15 -38 0 -13 7 -29 15 -36 8 -7 15 -26 15 -42 0 -16 6 -31
15 -34 8 -4 15 -18 15 -34 0 -15 7 -33 15 -40 8 -7 18 -30 21 -51 4 -21 13
-44 20 -50 8 -6 14 -26 14 -44 0 -18 7 -38 15 -45 8 -7 15 -27 15 -45 0 -18 7
-38 15 -45 8 -7 15 -24 15 -39 1 -14 9 -44 20 -66 11 -22 20 -53 20 -70 0 -16
7 -39 15 -49 8 -11 15 -36 15 -55 0 -20 7 -45 15 -55 8 -11 15 -38 15 -61 0
-22 6 -49 14 -60 7 -11 16 -42 19 -70 3 -27 13 -63 21 -80 9 -16 16 -52 16
-80 0 -28 7 -59 15 -69 9 -12 15 -42 15 -75 1 -33 7 -64 15 -75 9 -12 15 -42
15 -75 0 -31 6 -67 13 -82 8 -14 17 -58 21 -99 3 -40 11 -79 17 -87 6 -7 14
-43 16 -80 3 -38 12 -80 19 -95 8 -15 14 -53 14 -85 1 -35 6 -66 15 -77 9 -12
15 -42 15 -76 0 -30 6 -64 14 -75 7 -11 16 -46 19 -77 3 -32 13 -68 21 -80 9
-12 16 -41 16 -63 0 -23 7 -50 15 -61 8 -10 15 -38 15 -60 0 -24 6 -47 15 -54
8 -7 15 -29 15 -49 0 -21 7 -46 15 -57 8 -10 15 -28 15 -39 0 -11 9 -37 20
-58 11 -20 20 -48 20 -61 0 -13 7 -29 15 -36 8 -7 15 -25 15 -40 0 -15 7 -33
15 -40 8 -7 15 -23 15 -35 0 -12 7 -28 15 -35 8 -7 15 -18 15 -26 0 -14 45
-103 61 -119 5 -5 9 -17 9 -26 0 -9 7 -22 15 -29 8 -7 15 -21 15 -32 0 -10 6
-21 14 -24 8 -3 17 -17 21 -32 4 -15 10 -29 13 -32 13 -10 52 -69 52 -79 0 -5
14 -25 30 -43 16 -18 30 -36 30 -41 0 -7 62 -89 80 -107 3 -3 14 -18 24 -35
19 -30 197 -215 310 -324 32 -31 73 -70 90 -86 17 -17 62 -55 101 -85 38 -30
82 -67 97 -83 15 -15 30 -27 33 -27 8 0 62 -40 99 -73 17 -15 35 -27 40 -27 5
0 28 -16 52 -35 23 -19 49 -35 57 -35 8 0 17 -7 21 -15 3 -8 12 -15 19 -15 8
0 20 -7 27 -15 7 -8 21 -15 32 -15 10 0 21 -7 24 -15 4 -8 12 -15 19 -15 7 0
24 -9 38 -20 14 -11 32 -20 40 -20 8 0 20 -7 27 -15 7 -8 20 -15 30 -15 10 0
23 -7 30 -15 7 -8 20 -15 30 -15 10 0 23 -7 30 -15 7 -8 22 -15 35 -15 12 0
32 -9 45 -20 13 -11 33 -20 45 -20 13 0 28 -7 35 -15 7 -8 28 -15 47 -15 21 0
36 -6 39 -15 4 -10 20 -15 44 -15 21 0 43 -7 50 -15 7 -9 29 -15 54 -15 23 0
50 -6 61 -14 11 -7 48 -16 82 -20 35 -4 79 -14 98 -21 49 -21 647 -22 686 -1
14 7 54 16 89 20 35 4 76 14 91 22 16 8 43 14 62 14 19 0 40 7 47 15 7 8 27
15 44 15 18 0 41 7 52 15 10 8 31 15 45 15 15 0 32 6 38 14 7 8 27 17 46 20
19 4 35 11 35 16 0 5 10 12 22 15 24 7 82 32 108 46 8 5 25 13 37 18 11 6 24
15 28 20 3 6 14 11 23 11 10 0 25 9 35 20 9 11 26 20 37 20 11 0 20 5 20 10 0
6 10 15 23 21 30 14 60 31 77 47 47 40 64 52 77 52 7 0 16 7 19 15 4 8 10 15
15 15 6 0 22 12 37 27 38 38 88 73 105 73 18 0 57 -54 57 -78 0 -11 7 -25 15
-32 8 -7 15 -20 15 -29 0 -9 9 -29 20 -46 11 -16 20 -40 20 -51 0 -12 7 -27
15 -34 8 -7 15 -25 15 -40 0 -15 7 -33 15 -40 8 -7 15 -23 15 -36 0 -13 9 -41
20 -61 11 -21 20 -47 20 -58 0 -11 7 -29 15 -39 8 -11 15 -36 15 -57 0 -20 7
-42 15 -49 9 -8 15 -30 15 -59 0 -25 7 -55 15 -65 9 -11 15 -41 15 -68 0 -27
7 -62 16 -79 14 -28 36 -233 38 -357 1 -64 16 -72 80 -42 25 11 54 20 64 20
11 0 25 7 32 15 7 8 18 15 26 15 7 0 36 21 64 46 48 45 50 49 50 100 0 50 -1
53 -30 59 -16 4 -30 11 -30 16 0 5 -12 12 -27 15 -31 8 -72 51 -73 77 0 10 -7
20 -15 23 -8 4 -15 14 -15 23 0 9 -9 30 -20 46 -11 17 -20 42 -20 56 0 15 -7
32 -15 39 -8 7 -15 27 -15 45 0 18 -7 38 -15 45 -8 7 -15 29 -15 50 0 21 -6
43 -14 49 -7 6 -16 30 -20 52 -4 23 -13 51 -21 62 -8 12 -15 35 -15 52 0 16
-7 39 -15 49 -8 11 -15 34 -15 52 0 17 -7 37 -15 44 -8 7 -15 25 -15 41 0 15
-6 34 -13 41 -8 7 -17 30 -21 50 -3 20 -13 41 -21 48 -8 7 -15 23 -15 37 0 13
-7 31 -15 39 -8 9 -15 26 -15 38 0 13 -7 29 -15 36 -8 7 -15 28 -15 47 0 28 9
44 46 82 26 25 72 78 102 116 31 39 61 75 67 80 20 17 75 92 75 101 0 5 14 23
30 41 17 18 35 42 40 55 15 34 33 62 48 71 6 4 12 17 12 28 0 11 7 22 15 25 8
4 15 14 15 24 0 9 9 27 20 40 11 13 20 32 20 42 0 10 7 21 15 24 8 4 15 16 15
29 0 12 7 28 15 35 8 7 15 23 15 37 0 13 7 26 15 29 8 4 15 17 15 29 0 13 7
31 16 39 8 9 18 32 21 51 3 19 12 40 19 46 8 6 14 26 14 44 0 18 7 38 15 45 9
7 15 29 15 55 0 26 6 48 15 55 9 8 15 30 15 57 0 24 7 58 16 75 9 17 18 65 21
107 3 42 11 95 19 119 20 62 19 481 -1 537 -8 22 -15 66 -15 98 0 32 -9 83
-20 114 -11 32 -20 73 -20 93 0 19 -7 44 -15 54 -8 11 -15 39 -15 62 0 25 -6
47 -15 54 -8 7 -15 27 -15 44 0 18 -7 41 -15 52 -8 10 -15 28 -15 39 0 11 -9
34 -20 50 -11 17 -20 42 -20 56 0 15 -7 29 -15 33 -9 3 -15 18 -15 35 0 16 -6
31 -15 35 -8 3 -15 16 -15 29 0 14 -7 30 -15 37 -8 7 -15 18 -15 26 0 14 -45
103 -61 119 -5 5 -9 17 -9 26 0 9 -7 19 -15 23 -8 3 -15 17 -15 31 0 14 -4 25
-10 25 -5 0 -16 15 -25 33 -17 36 -34 65 -52 85 -7 7 -13 20 -13 28 0 8 -7 17
-15 20 -8 4 -15 12 -15 19 0 8 -6 20 -12 27 -7 8 -17 21 -23 30 -51 79 -109
158 -116 158 -5 0 -9 6 -9 13 0 15 -21 43 -67 93 -18 19 -33 37 -33 40 0 7
-65 87 -105 130 -16 17 -55 60 -86 95 -90 102 -177 189 -269 269 -46 41 -100
90 -119 109 -19 18 -46 40 -60 49 -34 22 -45 31 -86 70 -20 17 -38 32 -41 32
-9 0 -69 45 -77 58 -4 6 -15 12 -22 12 -8 0 -15 5 -15 10 0 6 -8 13 -17 17
-10 3 -36 20 -58 37 -44 35 -72 53 -97 62 -9 3 -19 12 -22 20 -3 8 -13 14 -22
14 -9 0 -33 13 -53 28 -20 15 -48 33 -63 40 -16 6 -28 16 -28 22 0 5 -8 10
-19 10 -10 0 -24 7 -31 15 -7 8 -18 15 -25 15 -7 0 -18 7 -25 15 -7 8 -21 15
-32 15 -10 0 -21 6 -24 14 -3 8 -18 18 -34 21 -16 3 -31 13 -34 21 -3 8 -16
14 -30 14 -13 0 -26 7 -30 15 -3 8 -14 15 -24 15 -10 0 -22 4 -28 10 -15 15
-163 90 -178 90 -8 0 -19 7 -26 15 -7 8 -20 15 -30 15 -10 0 -23 7 -30 15 -7
8 -23 15 -35 15 -12 0 -28 7 -35 15 -7 8 -20 15 -30 15 -9 0 -29 9 -43 20 -14
11 -34 20 -45 20 -11 0 -25 7 -32 15 -7 8 -23 15 -36 15 -12 0 -29 7 -38 15
-8 8 -26 15 -39 15 -14 0 -30 6 -36 14 -7 8 -27 17 -45 20 -19 4 -39 13 -46
21 -7 8 -26 15 -42 15 -16 0 -31 6 -34 15 -4 9 -19 15 -39 15 -18 0 -38 7 -45
15 -7 8 -25 15 -40 15 -15 0 -33 6 -39 14 -7 8 -30 17 -51 21 -21 4 -44 13
-51 21 -6 8 -26 14 -44 14 -18 0 -38 7 -45 15 -7 8 -27 15 -45 15 -18 0 -38 7
-45 15 -7 8 -27 15 -44 15 -17 0 -41 6 -52 14 -11 8 -38 18 -59 22 -22 4 -46
13 -53 21 -7 7 -31 13 -51 13 -22 0 -44 6 -51 15 -7 8 -29 15 -50 15 -21 0
-43 7 -50 15 -7 8 -29 15 -49 15 -20 0 -46 7 -58 15 -11 8 -40 17 -64 21 -24
4 -53 13 -64 20 -11 8 -36 14 -55 14 -20 0 -45 7 -56 15 -10 8 -37 15 -60 15
-22 0 -49 7 -60 15 -10 8 -37 15 -59 15 -22 0 -50 6 -61 14 -12 8 -45 18 -75
22 -30 4 -63 13 -74 20 -11 8 -40 14 -66 14 -29 0 -51 6 -59 15 -8 10 -30 15
-64 15 -30 0 -60 6 -72 15 -10 8 -38 15 -62 15 -23 0 -59 7 -79 15 -20 8 -61
18 -91 22 -31 3 -67 12 -81 20 -15 7 -51 13 -81 13 -32 0 -63 7 -74 15 -12 9
-43 15 -75 15 -31 1 -67 7 -81 15 -14 8 -48 14 -75 15 -28 0 -76 9 -108 20
-31 11 -79 20 -106 20 -27 0 -62 7 -77 15 -17 9 -57 15 -94 15 -37 1 -76 7
-90 15 -14 8 -52 14 -88 15 -34 0 -79 7 -99 15 -19 8 -63 15 -97 15 -33 1 -79
8 -101 16 -22 8 -80 17 -130 21 -49 3 -96 10 -103 16 -7 6 -59 13 -115 16 -56
4 -112 12 -124 19 -12 7 -58 12 -107 12 -50 0 -102 6 -123 14 -21 8 -84 17
-139 19 -56 3 -110 9 -120 15 -31 16 -104 25 -104 13z m706 -326 c9 -8 26 -15
39 -15 12 0 25 -7 29 -15 3 -8 13 -15 22 -15 9 0 27 -9 41 -20 14 -11 34 -20
44 -20 11 0 19 -4 19 -10 0 -5 12 -13 28 -16 15 -4 32 -11 38 -15 6 -5 58 -33
115 -63 57 -29 124 -65 149 -80 25 -14 52 -28 60 -32 8 -3 22 -10 30 -15 8 -5
27 -14 43 -20 15 -6 27 -15 27 -19 0 -4 12 -13 28 -19 35 -15 71 -36 85 -50 6
-6 19 -11 29 -11 9 0 21 -6 25 -13 4 -7 19 -18 33 -25 14 -7 39 -21 55 -32 17
-11 39 -24 50 -30 11 -6 32 -18 47 -28 14 -9 48 -30 75 -46 26 -16 66 -42 87
-58 21 -15 44 -28 49 -28 6 0 17 -7 26 -15 9 -9 59 -44 111 -79 52 -34 123
-82 158 -107 35 -24 71 -48 80 -54 9 -5 35 -24 57 -41 22 -17 54 -40 71 -50
17 -11 46 -31 65 -46 61 -49 181 -137 192 -141 6 -2 7 -9 3 -15 -5 -8 -47 -12
-135 -12 -96 0 -132 -4 -147 -15 -10 -8 -31 -15 -47 -15 -15 0 -44 -9 -64 -20
-21 -11 -50 -20 -64 -20 -15 0 -40 -7 -55 -15 -23 -12 -68 -15 -204 -15 -96 0
-193 5 -215 11 -22 6 -59 15 -83 21 -25 6 -45 17 -48 26 -6 18 -7 21 -56 100
-18 30 -38 61 -43 70 -6 10 -23 36 -38 59 -15 24 -27 47 -27 52 0 6 -6 14 -13
18 -7 4 -24 26 -37 48 -13 22 -38 59 -54 81 -17 23 -38 52 -46 64 -8 12 -21
29 -28 36 -7 8 -29 37 -49 66 -19 29 -41 60 -49 68 -26 27 -54 63 -54 69 0 4
-14 22 -31 40 -16 18 -56 65 -87 105 -31 39 -61 76 -67 82 -5 6 -59 65 -120
130 -60 65 -119 128 -130 140 -48 50 -57 63 -50 73 8 15 14 14 31 -4z m151 4
c6 -6 48 -13 94 -16 46 -2 101 -11 122 -19 20 -8 67 -14 103 -14 35 0 81 -7
101 -15 19 -8 59 -15 89 -15 29 0 73 -6 96 -14 24 -8 73 -17 110 -20 36 -4 82
-13 102 -21 19 -8 57 -15 84 -15 27 0 66 -7 85 -15 20 -8 60 -15 89 -15 29 -1
64 -7 78 -15 14 -8 47 -14 73 -15 26 0 63 -6 81 -14 18 -7 61 -17 95 -21 35
-4 75 -13 89 -21 15 -8 47 -14 72 -14 25 -1 56 -7 70 -15 14 -8 45 -15 70 -15
25 0 56 -7 70 -15 14 -8 43 -14 66 -15 48 0 88 -30 98 -72 3 -16 10 -28 15
-28 5 0 13 -15 17 -32 3 -18 14 -43 22 -57 24 -36 22 -303 -2 -349 -14 -27
-17 -60 -18 -155 0 -123 -4 -157 -16 -157 -4 0 -27 18 -51 40 -25 22 -48 40
-52 40 -4 0 -29 17 -56 38 -27 20 -56 42 -65 47 -48 30 -145 96 -158 107 -17
15 -46 33 -77 47 -13 6 -23 15 -23 21 0 5 -6 10 -14 10 -7 0 -34 16 -59 35
-25 19 -53 35 -61 35 -9 0 -16 5 -16 10 0 6 -10 15 -22 21 -36 16 -66 34 -86
52 -10 10 -22 17 -26 17 -5 0 -28 14 -53 30 -24 17 -50 30 -58 30 -8 0 -18 6
-22 13 -4 6 -21 19 -38 28 -90 47 -121 65 -128 77 -4 6 -17 12 -27 12 -10 0
-22 5 -25 10 -4 6 -21 17 -38 25 -18 8 -72 37 -122 65 -49 27 -97 52 -105 56
-8 3 -22 10 -30 15 -8 5 -28 15 -45 24 -16 8 -38 19 -47 25 -45 26 -54 30 -68
36 -8 3 -46 20 -85 39 -38 18 -77 36 -85 39 -8 3 -22 10 -30 15 -27 17 -106
51 -118 51 -7 0 -12 4 -12 10 0 5 -15 12 -34 16 -19 3 -37 12 -40 20 -3 8 -19
14 -36 14 -20 0 -30 5 -30 15 0 18 70 21 87 4z m2058 -395 c11 -8 38 -14 60
-14 22 0 49 -7 59 -15 11 -8 38 -15 60 -15 23 0 50 -7 60 -15 11 -8 36 -15 56
-15 19 0 44 -6 55 -14 11 -7 40 -17 65 -21 25 -4 54 -14 65 -21 11 -8 35 -14
55 -14 19 0 44 -7 54 -15 11 -8 34 -15 51 -15 17 0 40 -7 51 -15 10 -8 31 -15
47 -15 15 0 44 -9 64 -20 21 -11 49 -20 63 -20 14 0 34 -7 44 -15 11 -8 31
-15 45 -15 14 0 35 -7 45 -15 11 -8 32 -15 46 -15 14 0 35 -7 46 -15 10 -8 29
-15 42 -15 12 0 39 -9 59 -20 21 -11 43 -20 50 -20 6 0 24 -7 40 -14 15 -8 36
-17 46 -20 9 -3 17 -15 17 -28 0 -13 7 -32 15 -42 8 -11 15 -31 15 -45 1 -14
7 -37 15 -51 8 -14 14 -42 15 -62 0 -21 8 -59 18 -85 14 -40 17 -83 17 -263 0
-154 -4 -225 -13 -250 -8 -19 -16 -80 -19 -135 -3 -55 -12 -125 -19 -155 -21
-82 -19 -411 2 -478 9 -28 14 -59 10 -68 -6 -15 -28 3 -119 92 -62 61 -141
138 -177 171 -61 57 -96 91 -245 232 -33 31 -82 75 -110 96 -27 22 -75 64
-106 93 -32 30 -82 73 -112 96 -30 23 -84 68 -118 99 -35 31 -81 67 -102 81
-21 14 -48 35 -60 47 -12 11 -33 29 -47 39 -183 140 -171 105 -168 484 3 278
1 306 -14 323 -10 11 -18 29 -18 40 0 11 -7 26 -15 33 -8 7 -15 19 -15 27 0 8
-9 26 -20 40 -11 14 -20 31 -20 38 0 7 -7 15 -15 19 -18 7 -20 32 -2 39 17 7
58 -3 82 -19z m1445 -449 c7 -8 22 -15 34 -15 11 0 35 -9 51 -20 17 -11 38
-20 47 -20 9 0 31 -7 50 -16 77 -38 90 -44 108 -44 9 0 23 -7 30 -15 7 -8 19
-15 27 -15 8 0 27 -6 41 -14 64 -34 114 -56 126 -56 7 0 19 -7 26 -15 7 -8 21
-15 31 -15 9 0 24 -7 32 -15 8 -7 26 -17 40 -20 15 -4 31 -13 38 -21 6 -8 19
-14 29 -14 10 0 23 -7 30 -15 7 -8 20 -15 30 -15 10 0 23 -7 30 -15 7 -8 20
-15 29 -15 9 0 21 -4 26 -9 12 -12 107 -65 152 -86 17 -8 34 -19 38 -25 3 -5
15 -10 25 -10 10 0 23 -6 27 -13 4 -8 29 -24 56 -37 26 -13 47 -27 47 -31 0
-4 10 -11 23 -15 12 -4 38 -20 58 -35 20 -16 41 -29 47 -29 6 0 31 -20 56 -45
46 -44 46 -45 46 -112 0 -37 7 -100 15 -138 8 -39 15 -101 15 -140 0 -38 -7
-101 -15 -140 -8 -38 -15 -97 -15 -130 0 -33 -6 -71 -13 -86 -8 -14 -16 -48
-20 -76 -3 -29 -13 -65 -21 -82 -9 -16 -16 -43 -16 -59 0 -15 -7 -37 -15 -48
-8 -10 -15 -33 -15 -50 0 -16 -7 -39 -15 -50 -8 -10 -15 -30 -15 -44 0 -14 -6
-34 -14 -45 -7 -11 -17 -36 -21 -55 -4 -19 -14 -44 -21 -55 -8 -11 -14 -31
-14 -46 0 -15 -7 -32 -15 -39 -8 -7 -15 -27 -15 -45 0 -18 -7 -38 -15 -45 -8
-7 -15 -27 -15 -44 0 -17 -6 -40 -14 -51 -7 -11 -16 -37 -20 -57 -4 -20 -13
-50 -21 -65 -8 -15 -15 -42 -15 -59 0 -16 -7 -39 -15 -50 -8 -10 -15 -41 -15
-69 0 -27 -7 -61 -15 -75 -9 -16 -14 -54 -15 -103 0 -89 -15 -108 -51 -63 -11
14 -26 32 -33 39 -7 6 -29 35 -49 64 -20 29 -51 68 -69 87 -40 43 -48 53 -72
90 -10 16 -33 44 -52 62 -18 18 -58 66 -90 106 -32 40 -63 78 -69 84 -68 73
-100 110 -150 169 -32 39 -65 77 -74 86 -9 9 -65 68 -125 132 -155 166 -151
149 -151 547 0 271 3 325 18 385 16 61 18 105 15 340 -2 188 -7 276 -15 290
-7 11 -16 40 -22 65 -14 67 -37 130 -85 228 -14 30 -23 58 -20 63 8 14 40 11
54 -6z m-1578 -526 c9 -5 34 -9 55 -9 26 0 54 -10 84 -28 47 -31 178 -134 219
-173 13 -13 47 -42 76 -64 28 -22 93 -79 145 -126 52 -48 121 -109 155 -137
89 -73 674 -654 674 -669 0 -17 -21 -16 -56 2 -16 8 -50 15 -76 15 -26 0 -73
7 -105 15 -73 19 -202 19 -273 0 -30 -8 -82 -15 -115 -15 -33 0 -71 -6 -86
-13 -14 -8 -50 -17 -81 -20 -30 -4 -71 -14 -91 -22 -20 -8 -52 -15 -71 -15
-18 0 -47 -7 -62 -15 -16 -8 -50 -15 -75 -15 -26 0 -64 -7 -84 -16 -56 -23
-549 -23 -594 0 -32 17 -141 22 -141 7 0 -11 25 -21 53 -21 12 0 31 -7 41 -15
11 -8 34 -15 50 -15 17 0 40 -7 50 -15 11 -8 39 -15 63 -15 24 0 60 -7 80 -15
28 -12 83 -15 258 -15 175 0 230 3 258 15 20 8 62 15 94 15 32 1 69 7 83 15
14 8 50 14 80 15 30 0 66 6 80 13 15 8 60 17 102 20 41 4 88 12 104 18 43 17
269 23 334 9 30 -6 84 -17 120 -23 36 -7 75 -18 87 -25 12 -6 35 -12 51 -12
16 0 35 -7 42 -15 7 -8 23 -15 35 -15 17 0 44 -24 98 -88 41 -49 93 -108 117
-133 23 -24 65 -71 92 -104 57 -68 142 -167 177 -204 13 -14 34 -42 46 -61 13
-19 40 -53 61 -75 20 -21 52 -61 70 -87 19 -26 48 -63 66 -82 40 -43 48 -53
71 -89 10 -16 27 -37 37 -47 27 -27 90 -118 90 -130 0 -15 -69 -12 -115 5 -55
19 -237 20 -301 0 -27 -8 -68 -15 -91 -15 -23 0 -65 -9 -93 -20 -28 -11 -63
-20 -78 -20 -15 0 -36 -7 -46 -15 -11 -8 -34 -15 -52 -15 -17 0 -37 -7 -44
-15 -7 -8 -27 -15 -45 -15 -18 0 -38 -7 -45 -15 -7 -8 -22 -15 -34 -15 -11 0
-34 -9 -51 -20 -16 -11 -40 -20 -51 -20 -12 0 -27 -7 -34 -15 -7 -8 -25 -15
-40 -15 -15 0 -33 -7 -40 -15 -7 -8 -23 -15 -36 -15 -12 0 -29 -7 -38 -15 -8
-8 -22 -15 -30 -15 -9 0 -33 -9 -53 -20 -21 -11 -45 -20 -54 -20 -9 0 -22 -7
-29 -15 -7 -8 -22 -15 -34 -15 -11 0 -30 -7 -40 -15 -11 -8 -29 -15 -41 -15
-12 0 -30 -7 -41 -15 -10 -8 -27 -15 -37 -15 -9 0 -34 -9 -54 -20 -21 -11 -50
-20 -64 -20 -15 0 -32 -7 -39 -15 -7 -8 -29 -15 -49 -15 -20 0 -45 -7 -55 -15
-11 -8 -38 -15 -61 -15 -22 0 -49 -6 -60 -14 -11 -7 -58 -16 -104 -20 -46 -4
-92 -11 -102 -16 -30 -17 -272 -12 -338 6 -58 17 -118 13 -106 -6 3 -6 21 -10
39 -10 18 0 41 -7 52 -15 10 -8 35 -15 54 -15 20 0 62 -7 93 -15 39 -10 106
-15 202 -15 96 0 163 5 202 15 31 8 78 15 103 15 25 1 56 7 70 15 14 8 43 14
65 15 22 0 49 6 60 14 11 7 40 16 64 19 24 3 47 10 50 15 3 5 24 12 45 16 22
4 49 14 60 22 11 8 32 14 46 14 14 0 34 7 44 15 11 8 29 15 41 15 12 0 30 7
41 15 10 8 31 15 45 15 15 0 32 6 38 14 7 8 30 17 51 21 21 4 44 13 51 21 6 8
24 14 39 14 15 0 33 7 40 15 7 8 24 15 39 15 14 0 35 7 45 15 11 8 32 15 47
15 15 0 34 6 42 14 8 8 32 18 53 22 21 4 48 13 59 20 11 8 33 14 50 14 16 0
39 7 49 15 11 8 38 15 60 15 23 1 52 7 66 15 14 8 48 15 75 15 28 0 81 7 120
15 87 19 162 19 240 0 33 -8 78 -15 101 -15 22 0 45 -5 51 -11 6 -6 26 -14 45
-18 21 -4 37 -16 45 -32 7 -14 23 -37 36 -51 13 -14 34 -42 47 -63 12 -20 36
-51 51 -68 16 -17 29 -35 29 -40 0 -5 15 -28 33 -50 36 -46 54 -74 63 -99 3
-10 10 -18 15 -18 4 0 20 -22 36 -50 15 -27 31 -50 36 -50 4 0 12 -10 18 -22
15 -34 24 -48 131 -207 10 -14 22 -36 28 -48 5 -13 13 -23 18 -23 4 0 13 -12
19 -27 14 -31 32 -60 51 -81 6 -7 12 -17 12 -22 0 -8 60 -104 78 -126 5 -6 13
-20 16 -31 4 -12 13 -27 21 -33 8 -7 15 -19 15 -28 0 -13 -13 -14 -92 -7 -180
16 -417 5 -470 -21 -15 -8 -45 -14 -66 -14 -23 0 -45 -6 -52 -15 -7 -8 -29
-15 -50 -15 -21 0 -43 -6 -49 -14 -7 -8 -31 -18 -53 -21 -23 -4 -48 -14 -56
-21 -7 -8 -26 -14 -41 -14 -16 0 -34 -7 -41 -15 -7 -8 -25 -15 -40 -15 -15 0
-33 -7 -40 -15 -7 -8 -20 -15 -29 -15 -9 0 -33 -9 -54 -20 -20 -11 -43 -20
-51 -20 -7 0 -19 -7 -26 -15 -7 -8 -22 -15 -34 -15 -11 0 -30 -7 -40 -15 -11
-8 -30 -15 -42 -15 -12 0 -27 -7 -34 -15 -7 -8 -23 -15 -36 -15 -12 0 -29 -7
-38 -15 -8 -8 -21 -15 -28 -15 -7 0 -30 -9 -51 -20 -20 -11 -45 -20 -56 -20
-10 0 -24 -7 -31 -15 -7 -8 -25 -15 -39 -15 -15 0 -36 -7 -47 -15 -10 -8 -28
-15 -39 -15 -11 0 -37 -9 -58 -20 -20 -11 -47 -20 -59 -20 -13 0 -32 -7 -42
-15 -11 -8 -36 -15 -56 -15 -20 0 -45 -7 -56 -15 -10 -8 -38 -15 -62 -15 -24
0 -55 -6 -70 -14 -51 -25 -317 -37 -522 -22 l-115 9 -146 146 c-127 128 -271
296 -292 341 -13 28 -32 55 -44 63 -7 4 -13 13 -13 19 0 5 -22 47 -50 93 -27
46 -50 87 -50 93 0 5 -7 15 -15 22 -8 7 -15 23 -15 35 0 12 -7 28 -15 35 -8 7
-15 20 -15 29 0 9 -9 30 -20 46 -11 17 -20 38 -20 48 0 10 -7 25 -15 33 -8 9
-15 25 -15 37 0 12 -7 31 -15 41 -8 11 -15 32 -15 47 0 14 -6 32 -14 38 -8 7
-18 31 -21 54 -4 23 -14 51 -21 62 -7 11 -15 47 -17 80 -2 33 -8 60 -15 63 -7
2 -12 16 -12 30 0 15 -7 36 -15 46 -8 11 -15 38 -15 60 0 23 -7 53 -15 69 -8
15 -17 55 -21 89 -4 34 -13 73 -20 87 -8 14 -14 51 -14 81 -1 30 -7 66 -15 80
-8 14 -14 50 -15 80 0 30 -7 68 -15 84 -8 15 -15 50 -15 77 0 28 -7 66 -15 85
-8 20 -18 65 -21 102 -4 36 -13 77 -21 91 -7 14 -13 49 -13 76 -1 28 -7 61
-15 75 -8 14 -15 45 -15 70 0 25 -7 56 -15 70 -8 14 -14 43 -15 65 0 22 -7 53
-15 68 -8 16 -17 52 -21 80 -4 29 -13 61 -20 72 -28 39 -13 65 37 65 11 0 17
5 14 10 -3 6 -17 10 -30 10 -31 0 -65 48 -65 92 0 19 -7 43 -15 54 -8 10 -15
33 -15 49 0 17 -6 42 -14 57 -8 15 -17 42 -21 60 -4 18 -14 42 -21 53 -8 11
-14 34 -14 51 0 17 -7 37 -15 44 -8 7 -15 25 -15 39 0 15 -7 36 -15 47 -8 10
-15 27 -15 37 0 9 -9 34 -20 54 -11 21 -20 45 -20 54 0 9 -7 22 -15 29 -8 7
-15 23 -15 35 0 12 -7 28 -15 35 -8 7 -15 23 -15 35 0 12 -6 28 -14 34 -7 6
-16 25 -20 42 -3 17 -13 37 -21 45 -8 9 -15 24 -15 33 0 10 -7 24 -15 31 -8 7
-15 23 -15 35 0 13 -7 25 -15 29 -8 3 -15 14 -15 25 0 11 -6 26 -14 33 -7 8
-17 25 -21 38 -4 13 -14 30 -22 38 -8 8 -12 19 -10 26 6 16 76 11 112 -8 17
-9 50 -16 75 -16 25 0 63 -7 85 -15 47 -17 195 -20 245 -4 19 6 68 14 109 19
40 5 79 14 86 20 7 6 46 15 86 20 41 6 94 14 119 19 48 9 124 4 152 -10z
m3074 -254 c4 -8 12 -15 19 -15 8 0 20 -6 27 -13 7 -7 47 -39 88 -71 188 -145
446 -386 545 -511 22 -27 55 -65 73 -84 58 -60 225 -278 269 -351 15 -25 31
-47 36 -49 4 -2 13 -13 18 -25 5 -11 18 -34 29 -51 11 -16 23 -37 27 -45 4 -8
20 -34 35 -57 16 -22 31 -54 34 -70 9 -50 -31 -405 -52 -450 -8 -17 -14 -46
-14 -65 0 -19 -7 -43 -15 -54 -8 -10 -15 -35 -15 -55 0 -20 -7 -42 -15 -49 -8
-7 -15 -25 -15 -39 0 -15 -7 -36 -15 -47 -8 -10 -15 -26 -15 -34 0 -8 -9 -32
-20 -53 -11 -20 -20 -45 -20 -56 0 -10 -7 -24 -15 -31 -8 -7 -15 -19 -15 -27
0 -8 -6 -27 -14 -41 -8 -15 -62 -124 -121 -242 -58 -118 -110 -222 -115 -230
-5 -8 -11 -22 -14 -30 -3 -8 -10 -22 -15 -30 -26 -46 -79 -159 -85 -182 -3
-16 -11 -28 -16 -28 -6 0 -10 -13 -10 -29 0 -16 -7 -34 -15 -41 -8 -7 -15 -20
-15 -29 -1 -9 -9 -34 -20 -56 -11 -22 -19 -51 -20 -65 0 -15 -6 -32 -12 -38
-7 -7 -15 -36 -18 -64 -3 -28 -9 -53 -15 -55 -9 -2 -31 27 -57 77 -5 8 -16 27
-26 41 -9 15 -33 53 -52 84 -19 31 -43 69 -52 84 -10 14 -23 36 -29 49 -7 12
-16 22 -21 22 -4 0 -8 5 -8 11 0 11 -127 210 -152 239 -15 17 -33 47 -47 78
-6 12 -14 22 -18 22 -5 0 -17 16 -28 36 -18 34 -37 60 -68 94 -8 8 -17 22 -20
30 -4 8 -31 49 -62 90 -30 41 -70 98 -89 125 -19 28 -48 65 -65 84 -41 46 -44
58 -30 133 6 34 14 106 18 160 4 53 12 102 18 110 5 7 13 38 16 68 3 30 12 69
21 85 9 17 16 44 16 61 0 16 7 39 15 50 8 10 15 35 15 55 0 20 7 42 15 49 9 7
15 29 15 51 0 20 7 44 15 53 8 8 15 26 15 40 0 14 9 43 20 63 11 21 20 51 20
68 0 16 7 39 15 49 8 11 15 34 15 51 0 17 7 40 15 51 8 10 15 35 15 54 0 20 6
44 14 55 7 11 16 45 19 76 4 31 14 69 22 85 8 16 15 55 15 89 0 33 7 82 15
109 10 33 15 93 15 181 0 88 -5 148 -15 181 -8 27 -15 71 -15 97 0 27 -6 63
-14 80 -29 65 -29 107 0 107 8 0 17 -7 20 -15z m1264 -1449 c0 -13 7 -29 15
-36 8 -7 15 -20 15 -30 0 -9 9 -27 20 -40 11 -13 20 -30 20 -39 0 -9 7 -25 15
-35 8 -11 15 -30 15 -42 0 -12 7 -27 15 -34 8 -7 15 -21 15 -31 0 -11 9 -36
20 -56 11 -21 20 -47 20 -58 0 -11 7 -29 15 -39 8 -11 15 -34 15 -50 0 -17 7
-40 15 -50 8 -11 15 -36 15 -55 1 -20 7 -47 15 -61 8 -14 14 -48 15 -75 0 -28
8 -78 17 -110 25 -90 26 -568 0 -638 -9 -26 -17 -73 -17 -105 -1 -31 -7 -68
-15 -82 -8 -14 -14 -39 -15 -56 0 -16 -7 -39 -15 -50 -8 -10 -15 -33 -15 -51
0 -17 -4 -34 -9 -38 -5 -3 -15 -22 -21 -43 -6 -20 -18 -52 -26 -69 -8 -18 -20
-48 -28 -65 -14 -35 -82 -173 -129 -261 -15 -28 -32 -53 -37 -55 -6 -2 -10 -9
-10 -16 0 -7 -16 -34 -35 -59 -19 -25 -35 -49 -35 -54 0 -4 -16 -26 -35 -48
-44 -51 -47 -54 -68 -88 -10 -16 -43 -54 -73 -85 -29 -31 -54 -60 -54 -64 0
-5 -6 -8 -13 -8 -7 0 -25 26 -40 58 -16 31 -43 84 -62 117 -19 33 -37 67 -40
75 -4 8 -11 22 -16 30 -5 8 -16 29 -24 47 -8 17 -19 34 -25 38 -5 3 -10 12
-10 20 0 8 -12 33 -27 57 -48 74 -53 82 -65 108 -7 14 -18 33 -26 42 -12 14
-12 20 2 40 9 12 16 38 16 58 0 20 6 44 14 55 7 11 16 38 20 59 4 21 14 45 22
53 8 8 14 27 14 42 0 16 7 34 15 41 8 7 15 26 15 42 0 16 6 31 15 34 8 4 15
15 15 25 0 17 19 62 56 131 8 14 14 33 14 41 0 8 7 20 15 27 8 7 15 23 15 35
0 12 7 28 15 35 8 7 15 21 15 31 0 9 7 24 15 33 8 8 15 20 15 26 0 6 10 30 22
53 42 81 48 95 48 110 0 8 7 20 15 27 8 7 15 23 15 35 0 12 7 28 15 35 8 7 15
20 15 29 0 9 9 33 20 54 11 20 20 45 20 56 0 10 7 24 15 31 8 7 15 22 15 34 0
12 7 31 15 42 8 10 15 29 15 42 0 12 9 39 20 59 11 21 20 47 20 58 1 11 7 31
15 45 8 14 14 41 15 61 0 19 7 44 15 55 8 10 15 41 15 67 0 26 7 63 15 82 10
26 15 83 16 213 1 97 3 185 6 195 7 26 33 21 33 -7z m-1003 -2261 c19 -8 45
-15 57 -15 12 0 38 -9 59 -20 20 -11 43 -20 50 -20 16 0 57 -54 57 -75 0 -9 7
-18 15 -21 8 -4 15 -14 15 -24 0 -10 7 -25 15 -34 8 -8 20 -25 25 -38 6 -13
26 -50 44 -83 19 -33 48 -88 66 -122 17 -35 36 -65 41 -68 5 -4 9 -14 9 -24 0
-10 7 -24 15 -31 8 -7 15 -28 15 -49 0 -40 -8 -49 -115 -131 -38 -29 -74 -59
-80 -65 -5 -6 -28 -22 -50 -35 -22 -13 -46 -30 -53 -37 -7 -7 -18 -13 -23 -13
-11 0 -72 -41 -77 -52 -2 -5 -10 -8 -19 -8 -8 0 -26 -9 -40 -20 -14 -11 -34
-20 -43 -20 -10 0 -20 -7 -24 -15 -3 -8 -17 -15 -31 -15 -14 0 -28 -7 -31 -15
-4 -8 -16 -15 -29 -15 -12 0 -28 -7 -35 -15 -7 -8 -20 -15 -29 -15 -9 0 -33
-9 -54 -20 -20 -11 -48 -20 -61 -20 -13 0 -29 -7 -36 -15 -7 -8 -27 -15 -44
-15 -18 0 -41 -7 -52 -15 -10 -8 -36 -15 -56 -15 -21 0 -55 -6 -75 -14 -68
-25 -362 -39 -555 -26 -95 7 -190 18 -211 26 -20 8 -57 14 -81 14 -27 0 -48 6
-56 15 -7 8 -27 15 -44 15 -18 0 -41 7 -52 15 -10 8 -30 15 -42 15 -13 0 -36
6 -50 14 -54 29 -119 56 -134 56 -9 0 -21 7 -28 15 -7 8 -21 15 -31 15 -9 0
-24 7 -33 15 -8 8 -21 15 -29 15 -8 0 -26 9 -40 20 -14 11 -32 20 -40 20 -9 0
-19 5 -22 11 -4 5 -17 15 -28 20 -12 5 -35 18 -52 29 -16 11 -41 25 -55 30
-13 6 -27 14 -30 18 -10 14 -69 52 -80 52 -6 0 -13 7 -16 15 -4 8 -10 15 -15
15 -15 0 -93 58 -149 110 -8 8 -34 27 -55 43 -22 15 -64 50 -94 77 -42 39 -52
53 -43 62 10 10 20 9 45 -1 17 -8 66 -17 108 -21 42 -4 108 -13 147 -20 58 -9
89 -9 176 4 59 9 132 16 164 16 31 1 68 7 82 15 14 8 46 14 71 15 25 0 54 7
65 15 10 8 35 15 54 15 19 0 53 9 75 20 22 11 51 20 65 20 14 0 34 7 44 15 11
8 31 15 45 15 14 0 35 7 45 15 11 8 32 15 47 15 14 0 32 6 38 14 6 7 29 16 51
20 22 3 40 10 40 15 0 5 18 12 39 16 22 4 45 13 52 21 6 8 24 14 39 14 15 0
33 7 40 15 7 8 25 15 40 15 15 0 33 7 40 15 7 8 24 15 39 15 14 0 40 9 56 20
17 11 39 20 50 20 11 0 29 7 39 15 11 8 34 15 52 15 17 0 37 7 44 15 7 8 27
15 44 15 17 0 40 7 50 15 11 8 34 15 50 15 17 0 45 7 61 16 17 9 57 18 90 22
33 3 74 11 90 18 45 20 314 19 362 -1z"/>
</g>
</svg>
