<?xml version="1.0" standalone="no"?>
<!DOCTYPE svg PUBLIC "-//W3C//DTD SVG 20010904//EN"
 "http://www.w3.org/TR/2001/REC-SVG-20010904/DTD/svg10.dtd">
<svg version="1.0" xmlns="http://www.w3.org/2000/svg"
 width="922.000000pt" height="356.000000pt" viewBox="0 0 922.000000 356.000000"
 preserveAspectRatio="xMidYMid meet">

<g transform="translate(0.000000,356.000000) scale(0.100000,-0.100000)"
fill="#000000" stroke="none">
<path d="M503 2868 c141 -139 219 -235 303 -370 116 -188 178 -367 249 -721
25 -126 57 -265 71 -310 62 -198 185 -362 379 -505 82 -61 228 -129 311 -147
202 -43 422 8 581 134 l51 40 32 -75 c37 -89 65 -194 75 -282 7 -58 9 -62 29
-57 61 18 98 77 56 90 -23 7 -52 59 -70 125 -6 25 -27 87 -46 138 l-35 93 60
75 c277 344 227 791 -131 1169 -144 153 -304 262 -539 367 -354 159 -719 247
-1462 353 -37 5 -37 4 86 -117z m300 -8 c98 -16 232 -41 299 -55 66 -14 124
-25 127 -25 4 0 13 -16 20 -36 10 -26 11 -63 6 -130 l-7 -94 -61 43 c-34 23
-64 45 -67 48 -23 27 -470 269 -497 269 -4 0 37 -24 92 -54 55 -29 122 -65
150 -81 48 -27 285 -184 295 -195 3 -3 18 -16 34 -28 l29 -22 -39 0 c-22 0
-61 -7 -88 -15 -83 -25 -216 -16 -216 15 0 28 -144 221 -245 328 -33 35 -37
44 -25 52 8 5 15 10 15 10 0 0 80 -13 178 -30z m539 -110 c139 -36 333 -101
345 -117 6 -8 16 -12 21 -9 19 12 286 -113 397 -186 43 -28 51 -40 59 -77 14
-68 -7 -199 -54 -336 -23 -66 -49 -155 -58 -198 l-18 -78 -94 113 c-52 62
-117 137 -145 166 l-50 54 0 227 c0 194 -2 231 -18 265 -21 48 -30 43 -15 -10
7 -26 8 -74 2 -149 -5 -60 -9 -151 -9 -202 l0 -91 -79 76 c-106 103 -138 131
-295 261 l-41 34 0 99 c0 79 -4 107 -20 138 -11 22 -18 40 -14 40 3 0 42 -9
86 -20z m-14 -333 c31 -23 121 -106 201 -184 l146 -141 -50 9 c-57 11 -123 5
-247 -22 -49 -10 -127 -19 -175 -19 -109 -1 -93 -18 24 -26 56 -4 111 0 197
15 202 36 271 24 343 -56 48 -53 233 -280 233 -285 0 -2 -35 -4 -77 -4 -88 0
-144 -16 -333 -93 -130 -52 -238 -80 -318 -82 l-47 -1 40 -10 c85 -21 168 -3
455 98 193 67 301 67 350 -2 14 -19 30 -41 35 -47 18 -21 88 -129 131 -202
l42 -70 -92 -6 c-103 -7 -127 -14 -319 -93 -76 -31 -166 -63 -201 -71 -78 -18
-214 -22 -242 -7 -32 17 -127 139 -167 212 -60 111 -73 154 -131 435 -24 116
-49 230 -54 254 -6 25 -9 49 -6 53 3 4 0 8 -5 8 -6 0 -11 6 -11 13 0 26 -63
203 -100 281 -21 44 -37 82 -35 84 1 2 29 -2 62 -9 49 -10 70 -9 133 4 107 23
152 16 218 -36z m963 -118 c83 -74 162 -166 224 -264 36 -56 37 -61 32 -122
-9 -95 -39 -183 -113 -333 -37 -74 -77 -164 -90 -199 l-22 -63 -17 32 c-24 47
-205 313 -221 326 -8 6 -14 24 -14 40 0 30 39 186 85 339 28 94 37 220 22 298
-8 37 -7 38 13 27 12 -6 57 -43 101 -81z m340 -509 c26 -85 35 -235 20 -326
-16 -90 -76 -226 -135 -303 -26 -33 -50 -63 -55 -66 -13 -7 -101 159 -101 190
0 32 33 119 102 270 62 134 98 261 99 344 l0 56 25 -50 c14 -27 35 -79 45
-115z m-342 -553 c28 -10 41 -27 80 -100 l46 -87 -40 -35 c-52 -44 -174 -109
-249 -130 -68 -20 -223 -22 -301 -5 -74 17 -204 81 -288 143 -64 48 -97 77
-85 77 2 0 30 -4 62 -10 90 -15 174 2 377 75 100 36 198 70 218 74 53 13 141
12 180 -2z"/>
<path d="M1198 1533 c7 -3 16 -2 19 1 4 3 -2 6 -13 5 -11 0 -14 -3 -6 -6z"/>
<path d="M3695 2171 l-90 -16 -3 -452 -2 -453 22 -5 c13 -3 59 -5 103 -3 l80
3 5 200 c5 188 6 202 28 238 37 58 91 76 112 38 6 -12 10 -109 10 -245 l0
-225 33 -6 c17 -3 64 -5 102 -3 l70 3 3 240 c3 260 -3 308 -45 364 -50 65
-166 90 -263 56 -23 -8 -44 -15 -46 -15 -2 0 -4 68 -4 150 0 114 -3 150 -12
149 -7 -1 -53 -9 -103 -18z m76 -183 c1 -90 1 -166 0 -170 -2 -12 4 -10 34 16
40 35 127 60 181 52 66 -9 99 -30 123 -79 20 -40 21 -60 21 -285 l0 -242 -64
0 -65 0 -3 229 c-3 209 -5 231 -22 250 -24 27 -80 28 -122 2 -17 -11 -41 -40
-54 -67 -22 -45 -24 -65 -28 -231 l-4 -183 -64 0 -64 0 0 424 0 424 58 10 c31
5 60 10 65 11 4 0 8 -72 8 -161z"/>
<path d="M3285 2134 c-149 -19 -260 -115 -306 -263 -44 -143 -32 -346 26 -461
33 -65 115 -136 178 -155 58 -17 203 -20 262 -5 62 16 115 42 115 55 0 10 -23
82 -44 142 -4 8 -22 6 -66 -8 -127 -39 -203 -18 -243 69 -19 41 -22 64 -22
182 0 120 2 140 22 176 29 55 47 71 89 83 46 13 90 -1 132 -41 l34 -33 35 40
c19 22 47 55 61 74 l26 34 -39 35 c-22 19 -58 42 -80 52 -42 18 -130 30 -180
24z m172 -64 c34 -17 64 -38 67 -46 5 -13 -48 -94 -62 -94 -2 0 -17 11 -33 24
-36 30 -105 42 -153 26 -47 -15 -101 -80 -116 -138 -29 -113 -21 -290 16 -363
39 -78 127 -112 232 -89 31 6 63 12 70 13 17 2 47 -82 35 -94 -19 -19 -158
-41 -228 -37 -197 12 -295 147 -295 407 0 259 132 417 351 420 43 1 69 -6 116
-29z"/>
<path d="M6409 1920 c-102 -18 -189 -93 -231 -199 -18 -46 -22 -76 -22 -166 0
-102 2 -114 29 -169 52 -103 130 -146 264 -146 108 0 261 45 261 76 0 24 -53
134 -64 134 -7 0 -37 -9 -69 -20 -31 -11 -79 -20 -106 -20 -42 0 -53 4 -71 28
l-22 27 39 8 c192 41 294 128 295 252 1 139 -133 226 -303 195z m183 -57 c18
-10 43 -35 56 -54 34 -49 28 -139 -12 -192 -33 -44 -128 -93 -194 -102 -100
-13 -102 -14 -102 -47 0 -21 10 -40 34 -64 29 -29 41 -34 83 -34 27 0 78 8
114 18 l65 18 17 -40 c9 -21 15 -41 13 -43 -2 -2 -30 -13 -62 -26 -45 -16 -81
-22 -154 -22 -83 0 -101 3 -140 25 -81 45 -120 133 -120 267 0 82 15 133 56
200 34 53 96 98 157 114 51 13 152 4 189 -18z"/>
<path d="M6413 1786 c-39 -18 -72 -78 -80 -148 l-6 -50 54 7 c66 9 99 25 133
65 65 78 -8 167 -101 126z m85 -58 c4 -35 -32 -73 -84 -87 -21 -6 -39 -9 -40
-8 -10 10 23 91 44 108 37 28 76 22 80 -13z"/>
<path d="M4426 1904 c-69 -22 -155 -109 -186 -189 -31 -80 -34 -213 -5 -300
24 -73 92 -148 151 -164 88 -24 204 -4 243 42 12 15 16 13 42 -23 16 -22 31
-40 34 -40 6 0 168 61 173 65 2 2 -8 20 -22 42 -39 59 -47 111 -53 335 -5 179
-8 208 -22 212 -9 3 -54 12 -100 20 -103 20 -191 19 -255 0z m254 -32 l85 -17
6 -220 c5 -210 13 -269 40 -301 15 -18 7 -26 -50 -48 -41 -16 -44 -16 -57 1
-7 10 -21 39 -29 66 -9 26 -18 47 -21 47 -2 0 -10 -15 -18 -34 -21 -50 -74
-86 -139 -93 -144 -15 -227 76 -243 265 -7 88 8 154 53 226 72 114 183 146
373 108z"/>
<path d="M4485 1780 c-31 -12 -64 -53 -75 -91 -16 -55 -12 -213 6 -259 18 -46
38 -60 84 -60 40 0 83 46 110 118 27 71 30 286 4 296 -22 9 -105 6 -129 -4z
m105 -132 c0 -119 -11 -165 -47 -208 -33 -40 -72 -38 -91 3 -17 35 -19 200 -4
239 18 45 51 68 99 68 l43 0 0 -102z"/>
<path d="M4910 1887 c-41 -16 -76 -31 -77 -31 -1 -1 13 -30 30 -66 l32 -64 3
-236 c3 -165 7 -237 15 -242 14 -9 143 -10 175 -2 22 6 22 8 23 188 1 196 7
228 52 276 32 33 58 38 81 14 14 -13 16 -49 16 -243 l0 -228 31 -7 c40 -8 127
-8 157 0 l22 6 0 247 c0 141 -5 262 -11 284 -14 52 -61 102 -114 123 -80 30
-200 8 -261 -47 -20 -19 -21 -19 -53 21 -17 22 -35 40 -39 39 -4 0 -41 -15
-82 -32z m441 -19 c25 -14 46 -37 59 -63 18 -38 20 -62 20 -283 l0 -242 -65 0
-65 0 0 215 c0 231 -6 266 -51 280 -55 18 -131 -30 -160 -100 -7 -18 -14 -102
-17 -212 l-4 -183 -64 0 -64 0 0 193 c0 188 -6 233 -45 352 -5 18 1 23 42 38
26 9 51 17 54 17 3 0 16 -24 29 -52 13 -29 25 -54 25 -55 1 -2 24 19 52 46 74
72 178 92 254 49z"/>
<path d="M5737 1906 c-138 -50 -220 -177 -220 -345 0 -201 97 -322 256 -322
60 0 129 20 142 41 3 5 11 10 17 10 16 0 3 -78 -18 -101 -25 -27 -97 -25 -184
7 -40 14 -73 24 -74 22 -1 -2 -13 -40 -28 -85 l-26 -82 47 -19 c87 -37 126
-45 211 -45 96 0 136 13 195 64 75 66 101 187 71 333 -12 57 -16 133 -16 287
0 208 0 209 -22 214 -175 38 -284 44 -351 21z m276 -39 l57 -11 0 -201 c0
-138 5 -222 15 -270 40 -189 -11 -322 -137 -355 -55 -15 -167 -8 -242 14 -63
20 -65 25 -37 98 l10 27 57 -19 c32 -11 84 -20 117 -20 53 0 62 3 87 30 41 44
51 116 26 195 l-13 40 -17 -35 c-48 -96 -206 -119 -296 -43 -69 58 -103 204
-76 330 24 114 85 192 178 225 57 20 155 19 271 -5z"/>
<path d="M5785 1781 c-56 -23 -85 -93 -85 -206 0 -150 26 -205 96 -205 42 0
79 31 106 88 18 39 23 71 28 181 4 118 3 134 -12 142 -20 11 -106 11 -133 0z
m111 -67 c21 -113 -26 -286 -81 -300 -58 -15 -75 18 -75 147 0 136 31 189 112
189 35 0 38 -2 44 -36z"/>
<path d="M6770 1887 c-41 -16 -77 -32 -79 -33 -2 -2 6 -16 18 -32 39 -56 52
-134 58 -357 3 -115 10 -213 15 -216 13 -8 145 -11 168 -4 18 6 20 16 21 108
1 56 4 148 8 204 5 90 9 105 31 128 23 25 29 27 81 21 l56 -5 26 97 c14 53 24
98 22 100 -2 2 -32 8 -67 14 -75 13 -131 1 -178 -39 -30 -25 -31 -25 -46 -7
-8 11 -19 27 -25 37 -13 22 -20 21 -109 -16z m358 -3 c26 -8 27 -16 5 -83
l-16 -51 -52 0 c-43 0 -55 -4 -77 -27 -43 -45 -48 -73 -48 -264 l0 -179 -70 0
-70 0 0 213 c0 196 -2 217 -24 281 l-23 68 41 19 c22 10 47 19 54 19 7 0 25
-25 39 -56 l25 -56 24 40 c37 61 121 95 192 76z"/>
<path d="M7384 1909 c-49 -14 -125 -69 -161 -117 -43 -57 -63 -128 -63 -228 0
-207 92 -325 253 -325 63 0 128 18 141 40 4 6 12 11 18 11 16 0 3 -78 -18
-101 -25 -27 -97 -25 -184 7 -40 14 -73 24 -74 22 -2 -2 -14 -40 -28 -85 l-25
-82 46 -19 c78 -34 133 -45 216 -46 64 0 90 5 128 23 125 60 174 204 131 381
-13 51 -16 112 -15 277 l2 212 -23 5 c-163 37 -277 45 -344 25z m274 -43 l47
-12 6 -230 c4 -132 11 -244 18 -264 16 -47 12 -155 -8 -209 -20 -54 -77 -106
-133 -121 -55 -15 -167 -8 -242 14 -63 20 -65 25 -37 99 l11 27 52 -20 c33
-12 77 -20 116 -20 58 0 66 3 92 30 37 39 47 102 30 179 -11 48 -14 53 -24 37
-43 -73 -100 -106 -182 -106 -44 0 -111 28 -136 56 -102 117 -97 363 10 477
34 36 85 68 126 78 39 10 191 1 254 -15z"/>
<path d="M7425 1780 c-58 -24 -85 -91 -85 -213 0 -143 27 -197 97 -197 43 0
96 53 117 117 21 65 25 281 5 294 -17 11 -107 11 -134 -1z m111 -76 c20 -138
-33 -294 -101 -294 -39 0 -55 44 -55 150 0 137 31 190 112 190 36 0 37 -1 44
-46z"/>
<path d="M7826 1873 c-10 -61 -7 -406 4 -464 14 -74 51 -126 108 -151 75 -34
198 -23 256 23 l26 20 0 -45 c0 -89 -69 -110 -204 -61 -38 14 -70 24 -71 23
-13 -17 -53 -164 -47 -170 5 -5 40 -19 78 -32 239 -81 413 -5 445 194 8 52 6
81 -11 170 -16 87 -20 147 -20 318 l0 212 -104 0 -105 0 -3 -208 -3 -209 -28
-36 c-33 -44 -71 -57 -95 -33 -15 14 -17 48 -20 251 l-3 235 -98 0 -98 0 -7
-37z m170 -217 c0 -195 2 -226 17 -249 32 -50 97 -45 150 11 50 52 57 86 57
282 l0 180 71 0 72 0 -7 -192 c-6 -167 -5 -204 11 -273 21 -94 25 -246 6 -253
-7 -2 -13 -13 -13 -24 0 -30 -73 -93 -125 -108 -86 -24 -295 9 -295 47 0 28
23 83 35 83 7 0 34 -7 61 -15 27 -8 74 -15 105 -15 66 0 101 25 117 84 10 33
1 150 -11 163 -3 2 -25 -15 -49 -39 -67 -68 -162 -86 -245 -49 -80 37 -93 91
-93 381 l0 210 68 0 69 0 -1 -224z"/>
</g>
</svg>
